<mxfile host="app.diagrams.net" modified="2021-09-15T20:37:57.824Z" agent="5.0 (Windows NT 10.0; Win64; x64) AppleWebKit/537.36 (KHTML, like Gecko) Chrome/92.0.4515.159 Safari/537.36" etag="qO_OoDrMhXi6O565C8X5" version="15.2.7" type="github" pages="2">
  <diagram id="2HpPP-bICAGdmHpTmiFh" name="Page-1">
    <mxGraphModel dx="1185" dy="635" grid="1" gridSize="10" guides="1" tooltips="1" connect="1" arrows="1" fold="1" page="1" pageScale="1" pageWidth="1169" pageHeight="827" math="0" shadow="0">
      <root>
        <mxCell id="0" />
        <mxCell id="1" parent="0" />
        <mxCell id="R-Eaw4uN9UbWOstKoqbW-2" value="&lt;b&gt;RISK MANAGEMENT&lt;/b&gt;" style="text;html=1;align=center;verticalAlign=middle;whiteSpace=wrap;rounded=0;fillColor=#fff2cc;strokeColor=#d6b656;" parent="1" vertex="1">
          <mxGeometry x="40" y="40" width="1080" height="20" as="geometry" />
        </mxCell>
        <mxCell id="R-Eaw4uN9UbWOstKoqbW-4" value="" style="endArrow=classic;html=1;exitX=0.5;exitY=1;exitDx=0;exitDy=0;entryX=0.5;entryY=0;entryDx=0;entryDy=0;" parent="1" source="R-Eaw4uN9UbWOstKoqbW-2" target="R-Eaw4uN9UbWOstKoqbW-5" edge="1">
          <mxGeometry width="50" height="50" relative="1" as="geometry">
            <mxPoint x="320" y="80" as="sourcePoint" />
            <mxPoint x="320" y="100" as="targetPoint" />
          </mxGeometry>
        </mxCell>
        <mxCell id="R-Eaw4uN9UbWOstKoqbW-5" value="&lt;b&gt;&lt;font style=&quot;font-size: 12px&quot;&gt;PREPARATION&lt;/font&gt;&lt;/b&gt;" style="text;html=1;align=center;verticalAlign=middle;whiteSpace=wrap;rounded=0;fillColor=#d5e8d4;strokeColor=#82b366;" parent="1" vertex="1">
          <mxGeometry x="40" y="100" width="1080" height="20" as="geometry" />
        </mxCell>
        <mxCell id="iwnnFERjuLGPFcT2uMJZ-8" value="" style="rounded=0;whiteSpace=wrap;html=1;strokeColor=none;fillColor=#d5e8d4;" parent="1" vertex="1">
          <mxGeometry x="40" y="160" width="1080" height="100" as="geometry" />
        </mxCell>
        <mxCell id="R-Eaw4uN9UbWOstKoqbW-8" value="Incident handler Communication and facilities" style="text;html=1;align=center;verticalAlign=middle;whiteSpace=wrap;rounded=0;fillColor=default;strokeColor=none;" parent="1" vertex="1">
          <mxGeometry x="60" y="180" width="200" height="50" as="geometry" />
        </mxCell>
        <mxCell id="R-Eaw4uN9UbWOstKoqbW-11" value="Incident Analysis Hardware and Software" style="text;html=1;align=center;verticalAlign=middle;whiteSpace=wrap;rounded=0;fillColor=default;strokeColor=none;" parent="1" vertex="1">
          <mxGeometry x="320" y="180" width="200" height="50" as="geometry" />
        </mxCell>
        <mxCell id="R-Eaw4uN9UbWOstKoqbW-12" value="Incident Analysis Resources" style="text;html=1;align=center;verticalAlign=middle;whiteSpace=wrap;rounded=0;fillColor=default;strokeColor=none;" parent="1" vertex="1">
          <mxGeometry x="630" y="180" width="200" height="50" as="geometry" />
        </mxCell>
        <mxCell id="R-Eaw4uN9UbWOstKoqbW-13" value="Incident Mitigation Software" style="text;html=1;align=center;verticalAlign=middle;whiteSpace=wrap;rounded=0;fillColor=default;strokeColor=none;" parent="1" vertex="1">
          <mxGeometry x="900" y="180" width="200" height="50" as="geometry" />
        </mxCell>
        <mxCell id="iwnnFERjuLGPFcT2uMJZ-1" value="" style="endArrow=classic;html=1;entryX=0.5;entryY=0;entryDx=0;entryDy=0;exitX=0.25;exitY=1;exitDx=0;exitDy=0;" parent="1" source="R-Eaw4uN9UbWOstKoqbW-5" target="R-Eaw4uN9UbWOstKoqbW-8" edge="1">
          <mxGeometry width="50" height="50" relative="1" as="geometry">
            <mxPoint x="110" y="122" as="sourcePoint" />
            <mxPoint x="210" y="130" as="targetPoint" />
          </mxGeometry>
        </mxCell>
        <mxCell id="iwnnFERjuLGPFcT2uMJZ-2" value="" style="endArrow=classic;html=1;exitX=0.5;exitY=1;exitDx=0;exitDy=0;" parent="1" source="R-Eaw4uN9UbWOstKoqbW-5" target="R-Eaw4uN9UbWOstKoqbW-11" edge="1">
          <mxGeometry width="50" height="50" relative="1" as="geometry">
            <mxPoint x="379.58" y="120" as="sourcePoint" />
            <mxPoint x="380" y="178" as="targetPoint" />
          </mxGeometry>
        </mxCell>
        <mxCell id="iwnnFERjuLGPFcT2uMJZ-3" value="" style="endArrow=classic;html=1;exitX=0.5;exitY=1;exitDx=0;exitDy=0;" parent="1" source="R-Eaw4uN9UbWOstKoqbW-5" target="R-Eaw4uN9UbWOstKoqbW-12" edge="1">
          <mxGeometry width="50" height="50" relative="1" as="geometry">
            <mxPoint x="580" y="140" as="sourcePoint" />
            <mxPoint x="730" y="178" as="targetPoint" />
          </mxGeometry>
        </mxCell>
        <mxCell id="iwnnFERjuLGPFcT2uMJZ-4" value="" style="endArrow=classic;html=1;exitX=0.75;exitY=1;exitDx=0;exitDy=0;entryX=0.5;entryY=0;entryDx=0;entryDy=0;" parent="1" source="R-Eaw4uN9UbWOstKoqbW-5" target="R-Eaw4uN9UbWOstKoqbW-13" edge="1">
          <mxGeometry width="50" height="50" relative="1" as="geometry">
            <mxPoint x="1049.58" y="122" as="sourcePoint" />
            <mxPoint x="1049.58" y="180" as="targetPoint" />
          </mxGeometry>
        </mxCell>
        <mxCell id="iwnnFERjuLGPFcT2uMJZ-9" value="&lt;b&gt;&lt;font style=&quot;font-size: 13px&quot;&gt;&lt;u&gt;Preparing to Handle Incidents&lt;/u&gt;&lt;/font&gt;&lt;br&gt;&lt;/b&gt;" style="text;html=1;strokeColor=none;fillColor=none;align=center;verticalAlign=middle;whiteSpace=wrap;rounded=0;" parent="1" vertex="1">
          <mxGeometry x="460" y="230" width="230" height="20" as="geometry" />
        </mxCell>
        <mxCell id="hXuzACPKQtS0b_j040UV-15" style="edgeStyle=orthogonalEdgeStyle;rounded=0;orthogonalLoop=1;jettySize=auto;html=1;" edge="1" parent="1" source="hXuzACPKQtS0b_j040UV-2" target="hXuzACPKQtS0b_j040UV-13">
          <mxGeometry relative="1" as="geometry" />
        </mxCell>
        <mxCell id="hXuzACPKQtS0b_j040UV-2" value="" style="rounded=0;whiteSpace=wrap;html=1;strokeColor=none;fillColor=#d5e8d4;" vertex="1" parent="1">
          <mxGeometry x="40" y="300" width="1080" height="100" as="geometry" />
        </mxCell>
        <mxCell id="hXuzACPKQtS0b_j040UV-3" value="" style="endArrow=classic;html=1;entryX=0.5;entryY=0;entryDx=0;entryDy=0;exitX=0.5;exitY=1;exitDx=0;exitDy=0;" edge="1" parent="1" source="iwnnFERjuLGPFcT2uMJZ-8" target="hXuzACPKQtS0b_j040UV-2">
          <mxGeometry width="50" height="50" relative="1" as="geometry">
            <mxPoint x="590" y="270" as="sourcePoint" />
            <mxPoint x="570" y="320" as="targetPoint" />
          </mxGeometry>
        </mxCell>
        <mxCell id="hXuzACPKQtS0b_j040UV-8" value="Risk Assessments" style="text;html=1;align=center;verticalAlign=middle;whiteSpace=wrap;rounded=0;fillColor=default;strokeColor=none;" vertex="1" parent="1">
          <mxGeometry x="60" y="325" width="170" height="45" as="geometry" />
        </mxCell>
        <mxCell id="hXuzACPKQtS0b_j040UV-9" value="Host Security" style="text;html=1;align=center;verticalAlign=middle;whiteSpace=wrap;rounded=0;fillColor=default;strokeColor=none;" vertex="1" parent="1">
          <mxGeometry x="270" y="325" width="170" height="45" as="geometry" />
        </mxCell>
        <mxCell id="hXuzACPKQtS0b_j040UV-10" value="Network Security" style="text;html=1;align=center;verticalAlign=middle;whiteSpace=wrap;rounded=0;fillColor=default;strokeColor=none;" vertex="1" parent="1">
          <mxGeometry x="485" y="324.5" width="180" height="44" as="geometry" />
        </mxCell>
        <mxCell id="hXuzACPKQtS0b_j040UV-11" value="Malware Prevention" style="text;html=1;align=center;verticalAlign=middle;whiteSpace=wrap;rounded=0;fillColor=default;strokeColor=none;" vertex="1" parent="1">
          <mxGeometry x="710" y="326" width="180" height="44" as="geometry" />
        </mxCell>
        <mxCell id="hXuzACPKQtS0b_j040UV-12" value="User Awareness and Training" style="text;html=1;align=center;verticalAlign=middle;whiteSpace=wrap;rounded=0;fillColor=default;strokeColor=none;" vertex="1" parent="1">
          <mxGeometry x="940" y="326" width="160" height="42.5" as="geometry" />
        </mxCell>
        <mxCell id="hXuzACPKQtS0b_j040UV-16" value="" style="edgeStyle=orthogonalEdgeStyle;rounded=0;orthogonalLoop=1;jettySize=auto;html=1;" edge="1" parent="1" source="hXuzACPKQtS0b_j040UV-13" target="hXuzACPKQtS0b_j040UV-14">
          <mxGeometry relative="1" as="geometry" />
        </mxCell>
        <mxCell id="hXuzACPKQtS0b_j040UV-13" value="&lt;b&gt;&lt;font style=&quot;font-size: 12px&quot;&gt;DETECTION AND ANALYSIS&lt;/font&gt;&lt;/b&gt;" style="text;html=1;align=center;verticalAlign=middle;whiteSpace=wrap;rounded=0;fillColor=#ffe6cc;strokeColor=#d79b00;" vertex="1" parent="1">
          <mxGeometry x="40" y="440" width="1080" height="20" as="geometry" />
        </mxCell>
        <mxCell id="hXuzACPKQtS0b_j040UV-17" value="&lt;b&gt;&lt;font style=&quot;font-size: 13px&quot;&gt;&lt;u&gt;Preparing Incidents&lt;/u&gt;&lt;/font&gt;&lt;br&gt;&lt;/b&gt;" style="text;html=1;strokeColor=none;fillColor=none;align=center;verticalAlign=middle;whiteSpace=wrap;rounded=0;" vertex="1" parent="1">
          <mxGeometry x="460" y="370" width="230" height="20" as="geometry" />
        </mxCell>
        <mxCell id="hXuzACPKQtS0b_j040UV-14" value="" style="rounded=0;whiteSpace=wrap;html=1;strokeColor=none;fillColor=#ffe6cc;" vertex="1" parent="1">
          <mxGeometry x="40" y="500" width="1080" height="100" as="geometry" />
        </mxCell>
        <mxCell id="hXuzACPKQtS0b_j040UV-18" value="&lt;b&gt;&lt;u&gt;&lt;font style=&quot;font-size: 13px&quot;&gt;Attack Vector&lt;/font&gt;&lt;/u&gt;&lt;/b&gt;" style="text;html=1;strokeColor=none;fillColor=none;align=center;verticalAlign=middle;whiteSpace=wrap;rounded=0;" vertex="1" parent="1">
          <mxGeometry x="522.5" y="570" width="105" height="20" as="geometry" />
        </mxCell>
        <mxCell id="hXuzACPKQtS0b_j040UV-19" value="External/Removable Media" style="text;html=1;align=center;verticalAlign=middle;whiteSpace=wrap;rounded=0;fillColor=default;strokeColor=none;" vertex="1" parent="1">
          <mxGeometry x="60" y="525" width="110" height="45" as="geometry" />
        </mxCell>
        <mxCell id="hXuzACPKQtS0b_j040UV-20" value="Attrition" style="text;html=1;align=center;verticalAlign=middle;whiteSpace=wrap;rounded=0;fillColor=default;strokeColor=none;" vertex="1" parent="1">
          <mxGeometry x="190" y="525" width="110" height="45" as="geometry" />
        </mxCell>
        <mxCell id="hXuzACPKQtS0b_j040UV-21" value="Web" style="text;html=1;align=center;verticalAlign=middle;whiteSpace=wrap;rounded=0;fillColor=default;strokeColor=none;" vertex="1" parent="1">
          <mxGeometry x="320" y="525" width="110" height="45" as="geometry" />
        </mxCell>
        <mxCell id="hXuzACPKQtS0b_j040UV-22" value="Email" style="text;html=1;align=center;verticalAlign=middle;whiteSpace=wrap;rounded=0;fillColor=default;strokeColor=none;" vertex="1" parent="1">
          <mxGeometry x="460" y="525" width="110" height="45" as="geometry" />
        </mxCell>
        <mxCell id="hXuzACPKQtS0b_j040UV-23" value="Impersonation" style="text;html=1;align=center;verticalAlign=middle;whiteSpace=wrap;rounded=0;fillColor=default;strokeColor=none;" vertex="1" parent="1">
          <mxGeometry x="590" y="525" width="110" height="45" as="geometry" />
        </mxCell>
        <mxCell id="hXuzACPKQtS0b_j040UV-24" value="Improper Usage" style="text;html=1;align=center;verticalAlign=middle;whiteSpace=wrap;rounded=0;fillColor=default;strokeColor=none;" vertex="1" parent="1">
          <mxGeometry x="730" y="525" width="110" height="45" as="geometry" />
        </mxCell>
        <mxCell id="hXuzACPKQtS0b_j040UV-25" value="Loss or Theft of Equipment" style="text;html=1;align=center;verticalAlign=middle;whiteSpace=wrap;rounded=0;fillColor=default;strokeColor=none;" vertex="1" parent="1">
          <mxGeometry x="860" y="525" width="110" height="45" as="geometry" />
        </mxCell>
        <mxCell id="hXuzACPKQtS0b_j040UV-26" value="Improper Usage" style="text;html=1;align=center;verticalAlign=middle;whiteSpace=wrap;rounded=0;fillColor=default;strokeColor=none;" vertex="1" parent="1">
          <mxGeometry x="990" y="525" width="110" height="45" as="geometry" />
        </mxCell>
        <mxCell id="hXuzACPKQtS0b_j040UV-27" value="" style="rounded=0;whiteSpace=wrap;html=1;strokeColor=none;fillColor=#ffe6cc;" vertex="1" parent="1">
          <mxGeometry x="40" y="640" width="1080" height="100" as="geometry" />
        </mxCell>
        <mxCell id="hXuzACPKQtS0b_j040UV-29" style="edgeStyle=orthogonalEdgeStyle;rounded=0;orthogonalLoop=1;jettySize=auto;html=1;entryX=0.5;entryY=0;entryDx=0;entryDy=0;" edge="1" parent="1" target="hXuzACPKQtS0b_j040UV-27">
          <mxGeometry relative="1" as="geometry">
            <mxPoint x="580" y="600" as="sourcePoint" />
            <mxPoint x="590" y="450" as="targetPoint" />
          </mxGeometry>
        </mxCell>
        <mxCell id="hXuzACPKQtS0b_j040UV-30" value="&lt;b&gt;&lt;u&gt;&lt;font style=&quot;font-size: 13px&quot;&gt;Signs of an Incident&lt;/font&gt;&lt;/u&gt;&lt;/b&gt;" style="text;html=1;strokeColor=none;fillColor=none;align=center;verticalAlign=middle;whiteSpace=wrap;rounded=0;" vertex="1" parent="1">
          <mxGeometry x="498.75" y="720" width="162.5" height="20" as="geometry" />
        </mxCell>
      </root>
    </mxGraphModel>
  </diagram>
  <diagram id="h2QpLRTnuL7eqwxKNE09" name="Page-2">
    <mxGraphModel dx="1422" dy="705" grid="1" gridSize="10" guides="1" tooltips="1" connect="1" arrows="1" fold="1" page="1" pageScale="1" pageWidth="1169" pageHeight="827" math="0" shadow="0">
      <root>
        <mxCell id="JOSpV3ROqNeyWr1z_Bff-0" />
        <mxCell id="JOSpV3ROqNeyWr1z_Bff-1" parent="JOSpV3ROqNeyWr1z_Bff-0" />
      </root>
    </mxGraphModel>
  </diagram>
</mxfile>
